<?xml version="1.0" encoding="iso-8859-1"?>
<!-- Uploaded to: SVG Repo, www.svgrepo.com, Generator: SVG Repo Mixer Tools -->
<!DOCTYPE svg PUBLIC "-//W3C//DTD SVG 1.1//EN" "http://www.w3.org/Graphics/SVG/1.1/DTD/svg11.dtd">
<svg fill="#000000" version="1.1" id="Capa_1" xmlns="http://www.w3.org/2000/svg" xmlns:xlink="http://www.w3.org/1999/xlink" 
	 width="800px" height="800px" viewBox="0 0 70.077 70.077"
	 xml:space="preserve">
<g>
	<path d="M64.419,59.675c-1.385-0.818-2.977-0.917-4.387-0.446l-9.236-5.459c0.123-1.098,0.819-2.085,1.939-2.525
		c1.684-0.673,2.03-2.29,0.777-3.597c-1.252-1.312-1.151-3.342,0.222-4.523c1.368-1.185,1.182-2.826-0.438-3.65
		c-1.607-0.83-2.178-2.782-1.259-4.35c0.919-1.56,0.196-3.056-1.59-3.312c-1.793-0.262-2.968-1.93-2.607-3.705
		c0.363-1.776-0.801-2.955-2.582-2.619c-1.784,0.336-3.426-0.865-3.668-2.656c-0.232-1.799-1.718-2.534-3.292-1.639
		c-1.571,0.892-3.521,0.299-4.326-1.323c-0.803-1.625-2.448-1.843-3.646-0.477c-1.203,1.355-3.239,1.426-4.526,0.148
		c-1.289-1.268-2.916-0.942-3.606,0.733c-0.689,1.674-2.595,2.403-4.226,1.623c-1.635-0.787-3.065,0.049-3.174,1.857
		c-0.109,1.808-1.674,3.113-3.478,2.899c-1.796-0.208-2.874,1.046-2.391,2.787c0.479,1.75-0.576,3.495-2.347,3.875
		c-1.768,0.384-2.382,1.919-1.362,3.418c1.025,1.499,0.593,3.483-0.96,4.426c-1.55,0.938-1.629,2.593-0.174,3.677
		c1.456,1.081,1.691,3.104,0.526,4.491c-1.159,1.39-0.697,2.983,1.03,3.533c1.721,0.55,2.606,2.389,1.955,4.079
		c-0.645,1.701,0.308,3.054,2.119,3.011c1.814-0.036,3.244,1.412,3.181,3.226c-0.065,1.807,1.277,2.778,2.976,2.153
		c1.705-0.623,3.528,0.292,4.055,2.019c0.53,1.731,2.112,2.217,3.516,1.069c1.407-1.14,3.429-0.871,4.489,0.596
		c1.059,1.465,2.719,1.41,3.676-0.125c0.96-1.538,2.957-1.943,4.441-0.901c1.478,1.038,3.023,0.447,3.435-1.313
		c0.408-1.764,2.167-2.79,3.901-2.286c1.74,0.507,3.013-0.554,2.828-2.356c-0.098-0.926,0.208-1.783,0.769-2.408l9.499,5.611
		c0.273,1.464,1.133,2.812,2.514,3.629c2.531,1.501,5.808,0.661,7.309-1.88C67.79,64.449,66.955,61.179,64.419,59.675z
		 M42.886,49.096l-6.87-4.062c-0.051-2.211-1.193-4.344-3.235-5.55c-2.235-1.323-4.917-1.157-6.963,0.166l3.796,2.245
		c1.345,0.794,1.768,2.568,0.938,3.962c-0.824,1.398-2.579,1.887-3.927,1.093l-3.795-2.245c-0.175,2.423,0.974,4.856,3.214,6.18
		c2.039,1.209,4.457,1.177,6.421,0.157l6.629,3.919c-1.789,1.704-4.02,3.002-6.58,3.657c-7.979,2.055-16.135-2.771-18.185-10.746
		c-2.051-7.979,2.772-16.137,10.751-18.185c7.979-2.048,16.136,2.772,18.187,10.752C44.03,43.409,43.839,46.399,42.886,49.096z
		 M46.209,51.055l-1.387-0.821c1.22-3.2,1.51-6.783,0.593-10.349c-2.352-9.162-11.726-14.702-20.889-12.352
		C15.361,29.887,9.82,39.262,12.174,48.425c2.357,9.161,11.726,14.701,20.889,12.348c3.161-0.816,5.874-2.473,7.996-4.651
		l1.407,0.828c-2.354,2.521-5.42,4.432-9.007,5.354c-10.025,2.58-20.242-3.458-22.819-13.485C8.062,38.79,14.104,28.574,24.129,26
		c10.025-2.577,20.246,3.459,22.819,13.49C47.979,43.484,47.621,47.496,46.209,51.055z M64.12,65.699l-2.452,1.378l-2.416-1.426
		l0.03-2.811l2.449-1.377l2.418,1.423L64.12,65.699z M41.143,15.526l1.243,0.782c1.036,0.651,1.916,2.184,1.96,3.406l0.055,1.469
		c0.043,1.222,1.056,2,2.246,1.729l1.436-0.327c1.19-0.271,2.899,0.189,3.793,1.021l1.079,1.002
		c0.892,0.832,2.158,0.667,2.811-0.367l0.782-1.246c0.647-1.035,2.183-1.915,3.405-1.959l1.47-0.054
		c1.218-0.044,1.995-1.055,1.729-2.247L62.819,17.3c-0.271-1.192,0.189-2.899,1.024-3.793l1.002-1.08
		c0.832-0.894,0.668-2.158-0.367-2.812l-1.246-0.782c-1.031-0.652-1.911-2.184-1.959-3.406l-0.051-1.47
		c-0.048-1.221-1.056-2-2.246-1.728l-1.438,0.324c-1.19,0.271-2.899-0.188-3.793-1.02L52.667,0.53
		c-0.895-0.831-2.158-0.668-2.812,0.366l-0.783,1.246c-0.652,1.035-2.185,1.915-3.405,1.959l-1.469,0.054
		c-1.223,0.044-2.001,1.056-1.729,2.248l0.324,1.434c0.271,1.191-0.185,2.899-1.02,3.793l-1.002,1.079
		C39.945,13.611,40.109,14.877,41.143,15.526z M52.811,6.542c3.335,0,6.031,2.701,6.031,6.031c0,3.332-2.696,6.031-6.031,6.031
		c-3.33,0-6.031-2.7-6.031-6.031C46.779,9.245,49.482,6.542,52.811,6.542z"/>
</g>
</svg>